<svg xmlns="http://www.w3.org/2000/svg" width="120" height="120" viewBox="0 0 120 120" fill="none">
  <rect width="120" height="120" rx="24" fill="#1A73E8"/>
  <path d="M34 60C34 47.85 43.85 38 56 38C66.28 38 74.86 44.66 77.76 53.88C87.16 54.72 94.5 62.58 94.5 72.2C94.5 82.38 86.18 90.7 76 90.7H45.5C38.04 90.7 32 84.66 32 77.2C32 69.92 37.64 64 44.82 63.56C40.18 60.6 34 60 34 60Z" fill="white"/>
  <path d="M50 95C50 97.76 47.76 100 45 100C42.24 100 40 97.76 40 95C40 92.24 42.24 90 45 90C47.76 90 50 92.24 50 95Z" fill="white"/>
  <path d="M72 95C72 97.76 69.76 100 67 100C64.24 100 62 97.76 62 95C62 92.24 64.24 90 67 90C69.76 90 72 92.24 72 95Z" fill="white"/>
</svg>
